<svg id="e8c8ab7c-a9e1-4269-ac5e-92339d5816f6" data-name="Layer 1" xmlns="http://www.w3.org/2000/svg" xmlns:xlink="http://www.w3.org/1999/xlink" width="865.76" height="682.89" viewBox="0 0 865.76 682.89"><defs><clipPath id="bf1f6924-2260-4acd-bf8a-3c8d0f77d743"><path id="a056a637-b824-4e92-ad38-f7f605e92c76" data-name="SVGID" d="M96.39,337.52H592.51a0,0,0,0,1,0,0V354.3a3.38,3.38,0,0,1-3.38,3.38H99.77a3.38,3.38,0,0,1-3.38-3.38V337.52A0,0,0,0,1,96.39,337.52Z" fill="#c2c3c4"/></clipPath></defs><path d="M413.38,471.4c-11.86-18.14-10.13-44,4-60.45,4.4-5.09,10.54-9.52,17.24-8.94,6.87.59,12.39,6.47,14.48,13s1.36,13.67.14,20.45c-1.72,9.49-4.59,19.2-11.18,26.24S421.84,476,413.38,471.4" fill="#a7a9ac"/><path d="M419.94,558.7a27.09,27.09,0,0,1,7.55-30.78c2.73-2.23,6.29-3.95,9.7-3s5.79,4.46,6.27,8-.53,7.17-1.78,10.55c-1.74,4.73-4.1,9.47-8.13,12.51s-9.67,5.89-13.61,2.74" fill="#a7a9ac"/><path d="M391.34,552.47c3.26-16.08-5.21-33.82-19.77-41.39-4.51-2.35-10.08-3.74-14.63-1.46s-6.9,8-6.53,13.22,2.87,10,5.63,14.43c3.87,6.19,8.61,12.21,15.21,15.33s15.44,5.49,20.09-.13" fill="#a7a9ac"/><path d="M393.4,509c5.67-18.32-3.95-40.53-20-51-5-3.27-11.29-5.54-16.85-3.42s-9,8.53-9.15,14.62,2.17,12,4.86,17.43c3.77,7.66,8.58,15.22,15.89,19.62S387.32,515,393.4,509" fill="#a7a9ac"/><path d="M404.8,598.54a3.86,3.86,0,0,1-.19-.89c-.1-.67-.22-1.51-.38-2.55-.08-.57-.16-1.18-.25-1.85l-.42-2.18c-.3-1.56-.61-3.35-1.12-5.29-.24-1-.48-2-.74-3l-1-3.27c-.61-2.27-1.51-4.62-2.36-7.13a138.37,138.37,0,0,0-7.07-15.68,140,140,0,0,0-9.16-14.57c-1.62-2.09-3.08-4.14-4.64-5.91l-2.2-2.6-2.13-2.31c-1.34-1.49-2.65-2.74-3.79-3.85l-1.58-1.55-1.4-1.24-1.92-1.73a5,5,0,0,1-.64-.64,3.45,3.45,0,0,1,.74.52l2,1.62,1.44,1.19,1.64,1.51c1.17,1.09,2.52,2.31,3.88,3.79l2.19,2.29,2.24,2.59c1.59,1.76,3.08,3.81,4.72,5.9a119.58,119.58,0,0,1,16.33,30.42c.84,2.53,1.72,4.9,2.31,7.2.32,1.14.62,2.24.92,3.3l.69,3.08c.48,2,.76,3.76,1,5.34q.19,1.17.36,2.19c.07.68.13,1.3.19,1.87.1,1.05.18,1.9.24,2.58A4.08,4.08,0,0,1,404.8,598.54Z" fill="#bcbec0"/><path d="M404.38,601.83a1.63,1.63,0,0,1,0-.36c0-.29.05-.64.08-1.07.09-1,.22-2.35.37-4.07.09-.89.19-1.87.29-2.94s.11-2.24.18-3.5c.09-2.52.33-5.38.25-8.55q0-2.39,0-5c0-1.73-.18-3.52-.27-5.38-.12-3.73-.63-7.68-1.08-11.85a169.66,169.66,0,0,0-15.43-52c-1.89-3.74-3.62-7.33-5.55-10.52-.94-1.61-1.78-3.2-2.71-4.66s-1.84-2.85-2.69-4.19c-1.66-2.71-3.42-5-4.87-7-.74-1-1.41-2-2.06-2.85s-1.29-1.6-1.84-2.3l-2.54-3.21-.64-.85a1.34,1.34,0,0,1-.2-.3s.1.08.26.25l.7.8,2.65,3.12,1.9,2.27c.68.84,1.36,1.8,2.12,2.81,1.49,2,3.28,4.29,5,7l2.75,4.17c.94,1.46,1.8,3.05,2.76,4.66,2,3.19,3.71,6.78,5.63,10.53A165.3,165.3,0,0,1,404.88,559c.43,4.19.92,8.16,1,11.9.07,1.87.22,3.67.22,5.41s0,3.4,0,5c0,3.18-.23,6-.37,8.57-.08,1.26-.13,2.44-.24,3.52l-.36,2.93c-.21,1.72-.39,3.07-.52,4.06l-.15,1.06A1.5,1.5,0,0,1,404.38,601.83Z" fill="#bcbec0"/><path d="M435.25,423.91a1.41,1.41,0,0,1-.15.34c-.14.25-.31.57-.51.95-.5.88-1.17,2.09-2,3.62-.43.79-1,1.64-1.46,2.61l-1.59,3.19-1.83,3.66c-.61,1.32-1.2,2.73-1.85,4.2s-1.35,3-2,4.63l-2,5.11-1,2.69q-.48,1.39-1,2.82c-.64,1.91-1.3,3.88-2,5.89-2.52,8.13-4.9,17.18-6.91,26.79s-3.31,18.89-4.32,27.34-1.5,16.11-1.68,22.55c-.16,3.21-.2,6.12-.21,8.68s-.05,4.76,0,6.56.05,3.14.06,4.15v1.08a1.82,1.82,0,0,1,0,.37,1.49,1.49,0,0,1-.05-.37c0-.29-.05-.64-.07-1.07-.05-1-.12-2.4-.21-4.15s-.14-4-.14-6.57,0-5.48.09-8.7c.11-6.45.69-14.12,1.52-22.61s2.32-17.76,4.27-27.41,4.43-18.71,7-26.85q1-3,2-5.9c.33-1,.65-1.9,1-2.82l1.06-2.7c.7-1.76,1.37-3.47,2-5.11s1.4-3.15,2.05-4.62,1.28-2.88,1.92-4.19l1.89-3.64,1.64-3.17c.53-1,1.07-1.81,1.53-2.59l2.15-3.55.58-.91C435.16,424,435.24,423.9,435.25,423.91Z" fill="#bcbec0"/><path d="M431.22,535.2a15.37,15.37,0,0,1-1.26,2.21c-.87,1.39-2.06,3.44-3.45,6s-2.94,5.69-4.5,9.22-3,7.51-4.35,11.76-2.29,8.4-3,12.18-1.21,7.24-1.49,10.15-.47,5.26-.54,6.9a17,17,0,0,1-.2,2.54,14.64,14.64,0,0,1-.1-2.55c0-1.64.06-4,.29-6.94s.66-6.4,1.33-10.23a105.36,105.36,0,0,1,7.45-24.1,102.24,102.24,0,0,1,4.67-9.2c1.46-2.54,2.73-4.55,3.68-5.89A16.3,16.3,0,0,1,431.22,535.2Z" fill="#bcbec0"/><polygon points="381.51 590.38 433.6 590.38 427.3 643.57 388 643.57 381.51 590.38" fill="#d1d3d4"/><polygon points="383.41 641.1 387.83 646.84 427.3 646.84 431.85 641.28 383.41 641.1" fill="#d1d3d4"/><path d="M431.57,606c0,.22-10.81.39-24.14.39s-24.14-.17-24.14-.39,10.8-.39,24.14-.39S431.57,605.81,431.57,606Z" fill="#fafafa"/><path d="M431.57,609.56c0,.22-10.81.39-24.14.39s-24.14-.17-24.14-.39,10.8-.38,24.14-.38S431.57,609.35,431.57,609.56Z" fill="#fafafa"/><path d="M430.92,613c0,.22-10.43.39-23.3.39s-23.29-.17-23.29-.39,10.42-.39,23.29-.39S430.92,612.78,430.92,613Z" fill="#fafafa"/><path d="M556.8,337.38H133.28l.08-262a17.48,17.48,0,0,1,17.48-17.48H539.4a17.47,17.47,0,0,1,17.48,17.48Z" fill="#d1d3d4"/><path id="a9ff4861-7170-410d-a57e-871d0dc247bf" data-name="SVGID" d="M96.39,337.52H592.51a0,0,0,0,1,0,0V354.3a3.38,3.38,0,0,1-3.38,3.38H99.77a3.38,3.38,0,0,1-3.38-3.38V337.52A0,0,0,0,1,96.39,337.52Z" fill="#c2c3c4"/><g clip-path="url(#bf1f6924-2260-4acd-bf8a-3c8d0f77d743)"><path d="M308.39,337.32h72.29a0,0,0,0,1,0,0v3.55a4,4,0,0,1-4,4H312.39a4,4,0,0,1-4-4v-3.55a0,0,0,0,1,0,0Z" fill="#fafafa" opacity="0.2"/><rect x="96.39" y="351.3" width="496.71" height="10.66" opacity="0.2"/></g><rect x="154.86" y="76.94" width="379.64" height="242.84" fill="#e6e7e8"/><path d="M172.33,48.84h344a5.48,5.48,0,0,1,5.48,5.48V249.09a5.48,5.48,0,0,1-5.48,5.48h-344a4.21,4.21,0,0,1-4.21-4.21V53A4.21,4.21,0,0,1,172.33,48.84Z" fill="#0071f2"/><path d="M173.42,240.25l4.13,10.28s102.86-37.59,166.6-1.27C344.15,249.26,315.87,198.55,173.42,240.25Z" fill="#bcbec0"/><path d="M179.19,250.53l331.55-1.14a.33.33,0,0,0,.17-.61c-8.3-4.8-67.71-35.7-166.76.48,0,0-29.69-21.32-92.41-14.85,0,0-24.83.27-72.62,15.61A.26.26,0,0,0,179.19,250.53Z" fill="#d1d3d4"/><rect x="287.77" y="274.5" width="105.57" height="21.11" rx="5.59" fill="#c2c3c4"/><path d="M511.91,249.39l5.26-10.52-.81-183.3c-104.8-44.91-172.21-7.26-172.21-7.26C288,11.19,172.89,55.2,172.89,55.2l.53,185.05s126.72-41.36,170.73,9C344.15,249.26,432.2,211.08,511.91,249.39Z" fill="#e6e7e8"/><path d="M196.71,66.67S278.22,39,339.16,62.32" fill="none" stroke="#d1d3d4" stroke-miterlimit="10"/><path d="M196.71,84.48s81.51-27.7,142.45-4.36" fill="none" stroke="#d1d3d4" stroke-miterlimit="10"/><path d="M196.71,99.51s81.51-27.7,142.45-4.35" fill="none" stroke="#d1d3d4" stroke-miterlimit="10"/><path d="M196.71,117.32s81.51-27.7,142.45-4.36" fill="none" stroke="#d1d3d4" stroke-miterlimit="10"/><path d="M196.71,131.17s81.51-27.7,142.45-4.36" fill="none" stroke="#d1d3d4" stroke-miterlimit="10"/><path d="M196.71,149s81.51-27.7,142.45-4.35" fill="none" stroke="#d1d3d4" stroke-miterlimit="10"/><path d="M198.69,172.71s81.51-27.7,142.45-4.35" fill="none" stroke="#d1d3d4" stroke-miterlimit="10"/><path d="M198.69,190.52s81.51-27.7,142.45-4.36" fill="none" stroke="#d1d3d4" stroke-miterlimit="10"/><path d="M198.69,204.37s81.51-27.7,142.45-4.36" fill="none" stroke="#d1d3d4" stroke-miterlimit="10"/><path d="M198.69,222.17s81.51-27.7,142.45-4.35" fill="none" stroke="#d1d3d4" stroke-miterlimit="10"/><path d="M363,69.67S444.55,42,505.48,65.32" fill="none" stroke="#d1d3d4" stroke-miterlimit="10"/><path d="M363,87.48s81.51-27.7,142.44-4.36" fill="none" stroke="#d1d3d4" stroke-miterlimit="10"/><path d="M363,102.51s81.51-27.7,142.44-4.35" fill="none" stroke="#d1d3d4" stroke-miterlimit="10"/><path d="M363,120.32s81.51-27.7,142.44-4.36" fill="none" stroke="#d1d3d4" stroke-miterlimit="10"/><path d="M363,134.17s81.51-27.7,142.44-4.36" fill="none" stroke="#d1d3d4" stroke-miterlimit="10"/><path d="M363,152s81.51-27.7,142.44-4.35" fill="none" stroke="#d1d3d4" stroke-miterlimit="10"/><path d="M365,175.71s81.51-27.7,142.44-4.35" fill="none" stroke="#d1d3d4" stroke-miterlimit="10"/><path d="M365,193.52s81.51-27.7,142.44-4.36" fill="none" stroke="#d1d3d4" stroke-miterlimit="10"/><path d="M365,207.37s81.51-27.7,142.44-4.36" fill="none" stroke="#d1d3d4" stroke-miterlimit="10"/><path d="M365,225.17s81.51-27.7,142.44-4.35" fill="none" stroke="#d1d3d4" stroke-miterlimit="10"/><path d="M366.1,149.07l-.57-108.92a131.84,131.84,0,0,1,21-4.4l-.68,114.1-9.71-11.06Z" fill="#0071f2"/><path d="M733.32,624.92a13.15,13.15,0,0,0-2.65-7.9V604.44l-260.56-.09V617a13.07,13.07,0,0,0-1.77,6.56,13.78,13.78,0,0,0,7.59,12.09,8.41,8.41,0,0,0-.95,3.83,8.85,8.85,0,0,0,17.69,0,8.39,8.39,0,0,0-1.17-4.2,13.71,13.71,0,0,0,6.92-11.72,13.07,13.07,0,0,0-1.7-6.42H705.78a13.19,13.19,0,0,0-2.54,7.75A13.78,13.78,0,0,0,710.83,637a8.41,8.41,0,0,0-1,3.83,8.85,8.85,0,0,0,17.69,0,8.29,8.29,0,0,0-1.17-4.21A13.69,13.69,0,0,0,733.32,624.92Z" fill="#bcbec0"/><path d="M526.73,293.65h147a42.71,42.71,0,0,1,42.71,42.71V496a0,0,0,0,1,0,0H484a0,0,0,0,1,0,0V336.37A42.71,42.71,0,0,1,526.73,293.65Z" fill="#bcbec0"/><path d="M561.59,316.58s4.06-3.27,19.72-3.87c0,0,3-7.13,3.07-12.37,0,0-7.71-3.31-13.68-15.38,0,0,2.18,8.53-4.18,14.47C566.52,299.43,560.94,304.9,561.59,316.58Z" fill="#2f2e41"/><path d="M561.59,316.58s4.06-3.27,19.72-3.87c0,0,3-7.13,3.07-12.37,0,0-7.71-3.31-13.68-15.38,0,0,2.18,8.53-4.18,14.47C566.52,299.43,560.94,304.9,561.59,316.58Z" opacity="0.2"/><path d="M611.44,312.3a21.22,21.22,0,0,1-3.73-13.44s12.61-9.65,13.7-21.59a28.08,28.08,0,0,0,2.47,8,47.15,47.15,0,0,0,11.28,15.47c3.8,3.53,8.11,10.29,2.45,20.37A79.2,79.2,0,0,0,611.44,312.3Z" fill="#2f2e41"/><path d="M611.44,312.3a21.22,21.22,0,0,1-3.73-13.44s12.61-9.65,13.7-21.59a28.08,28.08,0,0,0,2.47,8,47.15,47.15,0,0,0,11.28,15.47c3.8,3.53,8.11,10.29,2.45,20.37A79.2,79.2,0,0,0,611.44,312.3Z" opacity="0.2"/><polygon points="689.67 497.95 690.64 484.46 510.47 484.61 510.47 497.2 689.67 497.95" fill="#a7a9ac"/><path d="M769.38,468a40,40,0,0,0-79.9,0,41.1,41.1,0,0,0,.51,6.42v23.68H510V468a40,40,0,1,0-63.3,32.69h0L452,589.44a16,16,0,0,0,15.93,15H732.27a17,17,0,0,0,17-16.35l3.5-86.9h0C763.19,494,769.38,481.61,769.38,468Z" fill="#d1d3d4"/><circle cx="468.71" cy="468.24" r="19.98" fill="#a7a9ac"/><circle cx="730.21" cy="468.24" r="19.98" fill="#a7a9ac"/><rect x="509.95" y="529.21" width="179.52" height="6.75" fill="#a7a9ac"/><path d="M583.17,234a24.26,24.26,0,0,0,.49,3.17A59.94,59.94,0,0,1,575.3,246a21.84,21.84,0,0,0-7.65,13.66,52.19,52.19,0,0,0,1.23,20.31,1.82,1.82,0,0,0,.07.25A26.66,26.66,0,0,0,570.7,285c2.57,8.55-4,14.53-4,14.53-5.42,6.55-5.13,17.09-5.13,17.09-5.7,27.06-19.37,15.67-19.37,15.67-2.85-5.41,3.42-12.82,3.42-12.82,2.84-3.42,1.7-11.11,1.7-11.11-3.56-6-3.27-11-2.1-14.46a14.42,14.42,0,0,1,4.46-6.41,16.76,16.76,0,0,0,6.15-10.85,16.25,16.25,0,0,0-2.51-10.74c-9.81-16.08,3.41-29,3.41-29,12.24-16.52,29-18.51,29-18.51A29.29,29.29,0,0,0,583.17,234Z" fill="#2f2e41"/><path d="M580.67,312.59s-23.92,1.14-26.2,9.11c0,0-12,31.34-4.28,53.84,0,0,12.54,29.63,13.11,41.59h70.64s-2.39-16.51,1.82-30.46a47.66,47.66,0,0,1,1.93-5c2.36-5.4,10-27.57-4-63.93,0,0-4.28-2.28-24.22-5.7C609.44,312,578.68,312.87,580.67,312.59Z" fill="#0071f2"/><path d="M681.37,406.52l-22.65,4.63-21-29.5s10.6-23.23-4-63.93c0,0,10.25,1.71,19.08,21.65l23.65,42.72s6,11.74,7.2,21.37A2.79,2.79,0,0,1,681.37,406.52Z" fill="#0071f2"/><path d="M681.37,406.52l-22.65,4.63-21-29.5s10.6-23.23-4-63.93c0,0,10.25,1.71,19.08,21.65l23.65,42.72s6,11.74,7.2,21.37A2.79,2.79,0,0,1,681.37,406.52Z" opacity="0.2"/><path d="M507,407.1l25.3,3.76,20-30.26s-7.44-15.31-3-39.53l4.38-16.55a12.22,12.22,0,0,1,4.49-6.81,9,9,0,0,1,2.55-1.33c.11,0,.1-.17,0-.17-2.53-.12-14.11.62-23.94,22.3L512,384.37a66.57,66.57,0,0,0-6.41,21A1.58,1.58,0,0,0,507,407.1Z" fill="#0071f2"/><path d="M507,407.1l25.3,3.76,20-30.26s-7.44-15.31-3-39.53l4.38-16.55a12.22,12.22,0,0,1,4.49-6.81,9,9,0,0,1,2.55-1.33c.11,0,.1-.17,0-.17-2.53-.12-14.11.62-23.94,22.3L512,384.37a66.57,66.57,0,0,0-6.41,21A1.58,1.58,0,0,0,507,407.1Z" opacity="0.2"/><path d="M584.38,300.34s-.52,8.27-4.76,14.47a11.41,11.41,0,0,0-1.4,2.68c-1.27,3.63-2.74,12,7.86,17.31A22.79,22.79,0,0,0,594.5,337c6.86.51,19.91-.09,21.12-11.94a16.34,16.34,0,0,0-2.21-10,21.67,21.67,0,0,0-2-2.76A17.87,17.87,0,0,1,608,298.63S599.48,307.05,584.38,300.34Z" fill="#f9b499"/><path d="M681.8,406.59s3.7,21.65-17.95,45l-8.83,10,3.7-50.42Z" fill="#f9b499"/><path d="M508.05,407s-5.22,15,11.41,36.19l17.61,22.5-4.82-54.85Z" fill="#f9b499"/><path d="M567.72,501.58l7.5-3.26-.65-3.26s21.52-5.22,27.07-8.8H563.48S566.42,490.82,567.72,501.58Z" fill="#2f2e41"/><path d="M567.72,501.58l7.5-3.26-.65-3.26s21.52-5.22,27.07-8.8H563.48S566.42,490.82,567.72,501.58Z" opacity="0.2"/><rect x="534.24" y="480.65" width="122.2" height="5.7" fill="#bcbec0"/><path d="M527.93,386.65h134a1.1,1.1,0,0,1,1.1,1.1v3.46a0,0,0,0,1,0,0H526.84a0,0,0,0,1,0,0v-3.46A1.1,1.1,0,0,1,527.93,386.65Z" fill="#e6e7e8"/><path d="M525.74,392.34l8.5,88.31H656.45L664.4,392a3.11,3.11,0,0,0-3.11-3.39l-132.46.27A3.12,3.12,0,0,0,525.74,392.34Z" fill="#d1d3d4"/><path d="M526,501.26s-7.82-9.46-23.48-3.59c0,0-12.71,4.89-2.93,17.94,0,0,6.85,12.71,33.59,7.82,0,0-8.16-1.3-11.74-8.15C521.42,515.28,515.87,504.52,526,501.26Z" fill="#0071f2"/><path d="M581.42,519.85l-6.2-21.53s-32.28,15-49.24,2.94c0,0-9.45,2.28-4.56,14,0,0,3.58,9.13,18.58,8.8C540,524.08,566.42,522.45,581.42,519.85Z" fill="#f9b499"/><path d="M574.57,495.06l6.85,24.79s65.22-9.79,91.63-23.16c0,0,34.9-13.69,16.31-36.52,0,0-7.18-13.7-39.13,2.93C650.23,463.1,603.92,488.87,574.57,495.06Z" fill="#2f2e41"/><path d="M589.65,624.67s14.73,33.06,36.65,19.41c0,0,6.65-3.84,1.61-14.1a24.69,24.69,0,0,0-8.84-9.72,49.73,49.73,0,0,0-8.58-4.57S599.35,625.75,589.65,624.67Z" fill="#0071f2"/><path d="M564.14,587l20.54-8.8S574.24,544,570,511.37c0,0-5.55-39.14-19.57-45,0,0-22.5-9.14-26.09,12.39,0,0-5.54,14.35,10.11,49.56Z" fill="#2f2e41"/><path d="M564.14,587s10.62,17.85,23.89,35.51a21.51,21.51,0,0,0,7.21,6.27c4.07,2.11,9.75,3.2,14.89-2.33a5.92,5.92,0,0,0,1.58-1.8,7.71,7.71,0,0,0-2.88-10.46c-7-4.13-22.17-15.39-24.15-36Z" fill="#f9b499"/><path d="M583.58,305.38s.68-3.61.8-5c0,0,11.31,3.4,19.41-.34C603.79,300,593.6,307.47,583.58,305.38Z" fill="#f7a48b"/><path d="M623.12,266.86c0,20.06-12.57,36.32-28.06,36.32-11.87,0-22-9.53-26.11-23a1.82,1.82,0,0,1-.07-.25,52.19,52.19,0,0,1-1.23-20.31A21.84,21.84,0,0,1,575.3,246a59.94,59.94,0,0,0,8.36-8.83,24.26,24.26,0,0,1-.49-3.17,22.78,22.78,0,0,1,11.89-3.41C610.55,230.55,623.12,246.81,623.12,266.86Z" fill="#f9b499"/><path d="M637.36,319.71c-9.5,27.81,10.27,36.43,18.78,38.21a15.44,15.44,0,0,0,10.19-1.39c24.47-12.48,15.25-32.83,9.29-42a42.69,42.69,0,0,0-5.2-6.21,13.79,13.79,0,0,1-2.77-4.47,17.76,17.76,0,0,1-.59-11.18c4.07-14.91-8.34-17.95-8.34-17.95-9.68-5.12-11.39-17.94-11.39-17.94,2-26.78-12.53-35.33-12.53-35.33-26.49-19.65-41-10.25-41-10.25-11.7,5.55-12.1,18.5-10.83,25.89.67,3.88,3.43,7.43,6.47,9.93,4.22,3.47,11.82,8.31,24.3,12,0,0,10.54,3.7,7.69,18.23,0,0-.57,10.25,9.68,20.51C631.09,297.78,641.35,308,637.36,319.71Z" fill="#2f2e41"/></svg>