<svg xmlns="http://www.w3.org/2000/svg" width="500" height="500" viewBox="0 0 500 500" version="1.1"><path d="M 188.500 81.607 C 135.881 90.996, 79.005 138.993, 65.574 185.343 C 54.927 222.082, 68.855 254.784, 115.750 303.153 C 123.588 311.237, 130 318.225, 130 318.682 C 130 319.140, 127.953 321.986, 125.451 325.007 C 108.273 345.750, 99.999 371.902, 103.977 392.880 C 107.693 412.471, 130.925 434.524, 155 441.312 C 171.035 445.833, 190.122 445.956, 201.313 441.611 C 204.716 440.290, 208.631 438.955, 210.014 438.645 C 212.874 438.003, 219.135 430.314, 221.598 424.419 C 222.863 421.392, 223.082 418.858, 222.568 413.189 C 221.964 406.528, 222.361 404.027, 226.968 385.437 C 232.316 363.854, 236.749 349.517, 239.229 345.781 C 240.699 343.568, 241.866 343.447, 306.612 338.814 C 383.090 333.341, 385.848 333.245, 389.139 335.917 L 391.500 337.835 391.173 380.388 C 390.994 403.793, 391.145 423.881, 391.509 425.029 C 392.567 428.363, 397.152 427.311, 398.167 423.500 C 398.607 421.850, 399.663 407.675, 400.515 392 C 403.505 336.984, 403.579 336.123, 405.525 333.973 C 406.507 332.888, 408.379 332, 409.686 332 C 412.440 332, 413.947 329.213, 411.896 327.914 C 411.128 327.428, 409.262 327.024, 407.750 327.015 C 406.230 327.007, 404.996 326.441, 404.990 325.750 C 404.985 325.063, 404.829 296.375, 404.643 262 C 404.253 189.853, 403.382 178.648, 396.323 155.007 C 390.043 133.973, 379.931 123.663, 367.250 125.366 C 350.396 127.629, 329.209 147.701, 304.228 185.070 C 283.681 215.806, 258.101 267.524, 238.975 317 C 233.972 329.941, 231.533 335.005, 229.612 336.440 C 227.359 338.122, 223.295 338.637, 199.030 340.313 L 171.046 342.247 147.135 319.089 C 116.211 289.140, 103.396 274.871, 91.219 256.824 C 68.062 222.506, 67.272 189.825, 88.822 157.614 C 116.777 115.831, 161.412 88.104, 200.856 88.022 C 217.733 87.986, 230.583 92.666, 242.715 103.265 C 254.868 113.883, 262.010 125.103, 266.519 140.662 C 267.914 145.477, 269.603 149.755, 270.272 150.168 C 270.941 150.582, 272.391 150.313, 273.494 149.572 C 276.693 147.422, 276.199 135.614, 272.530 126.500 C 268.894 117.467, 262.225 107.130, 256.049 100.954 C 249.988 94.893, 237.696 86.778, 230.494 84.084 C 219.249 79.876, 203.428 78.943, 188.500 81.607 M 358.950 134.415 C 345.816 141.401, 323.626 168.821, 305.505 200.457 C 298.137 213.321, 280.869 247.864, 273.492 264.500 C 261.293 292.005, 247 328.416, 247 331.984 C 247 334.554, 240.874 334.709, 322.880 330.067 C 375.685 327.078, 391.474 325.889, 392.199 324.848 C 393.403 323.118, 392.443 222.414, 391.047 204 C 386.901 149.309, 375.878 125.412, 358.950 134.415 M 133.568 325.575 C 130.575 328.568, 125.883 336.038, 122.464 343.256 C 115.240 358.503, 112.258 378.689, 115.410 391 C 120.654 411.478, 142.236 429.260, 169.500 435.566 C 179.090 437.784, 194.765 437.182, 201.024 434.355 L 205.547 432.313 206.905 423.906 C 209.512 407.772, 209.569 408.338, 204.410 399.293 C 195.835 384.259, 176.520 362.098, 151.206 338.250 C 142.886 330.413, 135.869 324, 135.611 324 C 135.354 324, 134.434 324.709, 133.568 325.575 M 196.517 346.704 C 186.626 347.490, 178.352 348.314, 178.131 348.535 C 177.910 348.757, 182.287 353.711, 187.857 359.545 C 193.428 365.380, 201.419 374.731, 205.617 380.327 C 209.814 385.922, 213.376 390.646, 213.532 390.824 C 213.687 391.002, 214.552 388.527, 215.453 385.324 C 216.354 382.121, 219.350 372.363, 222.110 363.639 C 224.870 354.916, 226.889 347.153, 226.596 346.389 C 225.943 344.689, 221.262 344.738, 196.517 346.704" stroke="none" fill="#ffffff" fill-rule="evenodd"/><path d="M 0 250.002 L 0 500.004 250.250 499.752 L 500.500 499.500 500.752 249.750 L 501.004 0 250.502 0 L 0 0 0 250.002 M 0.492 250.500 C 0.492 388, 0.608 444.101, 0.750 375.170 C 0.892 306.238, 0.892 193.738, 0.750 125.170 C 0.608 56.601, 0.492 113, 0.492 250.500 M 188.500 81.607 C 135.881 90.996, 79.005 138.993, 65.574 185.343 C 54.927 222.082, 68.855 254.784, 115.750 303.153 C 123.588 311.237, 130 318.225, 130 318.682 C 130 319.140, 127.953 321.986, 125.451 325.007 C 108.273 345.750, 99.999 371.902, 103.977 392.880 C 107.693 412.471, 130.925 434.524, 155 441.312 C 171.035 445.833, 190.122 445.956, 201.313 441.611 C 204.716 440.290, 208.631 438.955, 210.014 438.645 C 212.874 438.003, 219.135 430.314, 221.598 424.419 C 222.863 421.392, 223.082 418.858, 222.568 413.189 C 221.964 406.528, 222.361 404.027, 226.968 385.437 C 232.316 363.854, 236.749 349.517, 239.229 345.781 C 240.699 343.568, 241.866 343.447, 306.612 338.814 C 383.090 333.341, 385.848 333.245, 389.139 335.917 L 391.500 337.835 391.173 380.388 C 390.994 403.793, 391.145 423.881, 391.509 425.029 C 392.567 428.363, 397.152 427.311, 398.167 423.500 C 398.607 421.850, 399.663 407.675, 400.515 392 C 403.505 336.984, 403.579 336.123, 405.525 333.973 C 406.507 332.888, 408.379 332, 409.686 332 C 412.440 332, 413.947 329.213, 411.896 327.914 C 411.128 327.428, 409.262 327.024, 407.750 327.015 C 406.230 327.007, 404.996 326.441, 404.990 325.750 C 404.985 325.063, 404.829 296.375, 404.643 262 C 404.253 189.853, 403.382 178.648, 396.323 155.007 C 390.043 133.973, 379.931 123.663, 367.250 125.366 C 350.396 127.629, 329.209 147.701, 304.228 185.070 C 283.681 215.806, 258.101 267.524, 238.975 317 C 233.972 329.941, 231.533 335.005, 229.612 336.440 C 227.359 338.122, 223.295 338.637, 199.030 340.313 L 171.046 342.247 147.135 319.089 C 116.211 289.140, 103.396 274.871, 91.219 256.824 C 68.062 222.506, 67.272 189.825, 88.822 157.614 C 116.777 115.831, 161.412 88.104, 200.856 88.022 C 217.733 87.986, 230.583 92.666, 242.715 103.265 C 254.868 113.883, 262.010 125.103, 266.519 140.662 C 267.914 145.477, 269.603 149.755, 270.272 150.168 C 270.941 150.582, 272.391 150.313, 273.494 149.572 C 276.693 147.422, 276.199 135.614, 272.530 126.500 C 268.894 117.467, 262.225 107.130, 256.049 100.954 C 249.988 94.893, 237.696 86.778, 230.494 84.084 C 219.249 79.876, 203.428 78.943, 188.500 81.607 M 358.950 134.415 C 345.816 141.401, 323.626 168.821, 305.505 200.457 C 298.137 213.321, 280.869 247.864, 273.492 264.500 C 261.293 292.005, 247 328.416, 247 331.984 C 247 334.554, 240.874 334.709, 322.880 330.067 C 375.685 327.078, 391.474 325.889, 392.199 324.848 C 393.403 323.118, 392.443 222.414, 391.047 204 C 386.901 149.309, 375.878 125.412, 358.950 134.415 M 133.568 325.575 C 130.575 328.568, 125.883 336.038, 122.464 343.256 C 115.240 358.503, 112.258 378.689, 115.410 391 C 120.654 411.478, 142.236 429.260, 169.500 435.566 C 179.090 437.784, 194.765 437.182, 201.024 434.355 L 205.547 432.313 206.905 423.906 C 209.512 407.772, 209.569 408.338, 204.410 399.293 C 195.835 384.259, 176.520 362.098, 151.206 338.250 C 142.886 330.413, 135.869 324, 135.611 324 C 135.354 324, 134.434 324.709, 133.568 325.575 M 196.517 346.704 C 186.626 347.490, 178.352 348.314, 178.131 348.535 C 177.910 348.757, 182.287 353.711, 187.857 359.545 C 193.428 365.380, 201.419 374.731, 205.617 380.327 C 209.814 385.922, 213.376 390.646, 213.532 390.824 C 213.687 391.002, 214.552 388.527, 215.453 385.324 C 216.354 382.121, 219.350 372.363, 222.110 363.639 C 224.870 354.916, 226.889 347.153, 226.596 346.389 C 225.943 344.689, 221.262 344.738, 196.517 346.704" stroke="none" fill="none" fill-rule="evenodd"/></svg>