<svg xmlns="http://www.w3.org/2000/svg" width="1080" height="1080" viewBox="0 0 1080 1080" version="1.1"><path d="M 540.754 130 C 540.344 142.375, 539.563 196.150, 539.019 249.500 C 538.474 302.850, 537.766 371.025, 537.445 401 C 537.124 430.975, 536.704 475.525, 536.511 500 C 536.318 524.475, 535.831 571.375, 535.428 604.223 L 534.696 663.946 529.141 665.561 C 519.773 668.285, 513.827 671.949, 505.892 679.888 C 494.343 691.442, 487.970 706.221, 486.369 725.159 C 485.108 740.081, 489.981 759.472, 498.180 772.157 C 502.642 779.061, 511.508 788.177, 516.039 790.520 C 519.467 792.293, 519.774 793.990, 517.102 796.408 C 515.294 798.044, 514.833 797.937, 507.352 794.139 C 503.033 791.947, 491.038 785.490, 480.695 779.791 L 461.891 769.428 454.378 750.464 C 450.245 740.034, 445.338 728.108, 443.472 723.961 L 440.079 716.423 441.495 710.353 C 444.719 696.530, 451.444 682.314, 465.008 660.649 C 469.954 652.750, 474 645.533, 474 644.612 C 474 641.267, 470.775 641.508, 467.770 645.076 C 463.609 650.018, 440.755 684.546, 436.648 692.096 C 429.840 704.613, 428.411 714.953, 431.924 726.291 C 432.982 729.706, 436.559 741.746, 439.874 753.046 C 443.189 764.346, 447.235 776.565, 448.865 780.199 C 451.595 786.284, 452.331 787.086, 458.165 790.332 C 463.830 793.485, 473.172 797.399, 497 806.603 L 504.500 809.500 500 809.828 C 497.525 810.009, 488.075 809.623, 479 808.971 C 469.925 808.319, 456.917 807.622, 450.093 807.422 C 435.583 806.996, 436.733 807.543, 418.737 792.506 C 405.527 781.469, 406.470 783.397, 403.094 760.500 C 399.963 739.257, 399.693 730.611, 401.913 722.603 C 404.046 714.906, 403.750 712.751, 400.623 713.197 C 398.935 713.438, 397.942 715.170, 395.775 721.648 C 391.720 733.772, 390.687 742.472, 391.280 759.500 C 392.079 782.416, 392.044 782.341, 410.857 801.085 C 428.615 818.777, 435.485 824.485, 440.797 825.960 C 442.833 826.526, 451.475 827.046, 460 827.116 C 468.525 827.187, 481.757 827.527, 489.405 827.872 L 503.309 828.500 481.905 837.721 C 470.132 842.792, 459.251 847.398, 457.724 847.956 C 456.198 848.514, 454.784 849.539, 454.582 850.235 C 452.930 855.927, 441.592 892.097, 440.781 894.262 C 440.062 896.184, 440.075 898.315, 440.825 901.262 C 441.418 903.593, 442.181 907.750, 442.520 910.500 C 443.356 917.271, 445.643 926.352, 448.187 933 C 450.899 940.090, 463.016 961.069, 464.793 961.751 C 465.542 962.038, 466.860 961.568, 467.722 960.706 C 469.145 959.283, 468.781 958.235, 463.762 949.319 C 457.414 938.045, 454.336 926.930, 453.333 911.665 L 452.718 902.295 457.987 889.898 C 464.785 873.904, 468.330 866.894, 470.641 864.877 C 472.833 862.963, 503.962 844.081, 510.016 840.992 C 515.119 838.388, 516.224 839.097, 512.776 842.760 C 509.769 845.954, 489.393 871.475, 487.295 874.675 C 486.135 876.444, 485.930 881.308, 486.198 900.675 L 486.529 924.500 490.514 934.919 C 496.175 949.718, 506.151 969.436, 508.165 969.807 C 511.646 970.449, 511.150 966.250, 506.561 956.240 C 504.069 950.802, 500.449 941.210, 498.517 934.926 C 495.298 924.449, 495.012 922.504, 495.083 911.500 C 495.125 904.900, 495.463 895.851, 495.835 891.392 C 496.449 884.017, 496.826 882.922, 500.005 879.274 C 501.927 877.069, 508.212 869.341, 513.972 862.101 C 524.300 849.120, 527.874 846.401, 527.208 852.031 C 526.530 857.774, 526.582 869.711, 527.297 872.315 C 527.892 874.478, 528.583 875.057, 530.285 874.815 C 532.258 874.534, 532.532 873.829, 532.795 868.366 L 533.089 862.233 537.255 863.169 C 539.546 863.683, 543.100 863.821, 545.153 863.474 L 548.884 862.844 549.192 867.672 C 549.473 872.073, 549.721 872.500, 552 872.500 L 554.500 872.500 554.500 860.624 C 554.500 849.379, 554.621 848.667, 556.775 847.235 C 558.933 845.801, 559.227 845.922, 562.543 849.612 C 564.465 851.750, 570.642 859.560, 576.269 866.967 L 586.500 880.433 586.827 904.467 L 587.154 928.500 583.962 938 C 580.760 947.530, 576.875 955.903, 573.059 961.500 C 571.934 963.150, 571.010 965.513, 571.007 966.750 C 570.996 970.391, 574.627 969.567, 577.612 965.250 C 592.772 943.329, 601.009 925.013, 601.336 912.500 C 601.393 910.300, 601.341 900.495, 601.220 890.710 L 601 872.921 586.806 857.710 C 562.985 832.185, 563.617 833.408, 580 844.534 C 585.775 848.456, 594.480 854.077, 599.343 857.025 C 609.193 862.995, 610.111 864.115, 624.310 887.500 L 632.203 900.500 631.655 910 C 630.803 924.774, 626.206 935.068, 614.807 947.728 C 610.588 952.413, 610.333 953.202, 612.466 954.972 C 614.620 956.760, 615.502 956.164, 622.081 948.483 C 632.929 935.820, 641 915.700, 641 901.323 C 641 891.157, 632.304 866.972, 624.300 854.877 C 622.232 851.752, 619 849.692, 605.156 842.676 C 595.995 838.033, 584.553 832.751, 579.730 830.937 C 574.906 829.124, 571.329 827.271, 571.780 826.820 C 572.232 826.368, 587.428 825.080, 605.551 823.958 C 623.673 822.835, 639.476 821.711, 640.670 821.459 C 643.385 820.887, 684.062 779.004, 685.712 775.081 C 687.379 771.119, 689.338 750.505, 688.572 745 C 688.227 742.525, 687.269 735.325, 686.443 729 C 684.535 714.403, 684.343 713.810, 681.664 714.192 C 679.602 714.485, 679.524 714.878, 680 722.500 C 680.977 738.127, 680.523 760.396, 679.097 766.828 C 677.706 773.098, 677.612 773.222, 668.597 780.554 C 663.594 784.623, 654.775 791.826, 649 796.559 C 643.225 801.293, 637.375 805.744, 636 806.450 C 633.225 807.877, 574.113 809.421, 575.652 808.027 C 576.119 807.605, 579.875 806.266, 584 805.051 C 594.201 802.048, 624.974 789.114, 627.722 786.676 C 628.944 785.591, 630.665 782.183, 631.546 779.102 C 635.512 765.231, 648.953 730.948, 651.613 727.921 C 653.742 725.498, 653.387 711.854, 650.953 702.563 C 648.084 691.608, 645.343 686.748, 636.532 677 C 632.307 672.325, 627.701 666.731, 626.298 664.568 C 622.524 658.755, 613.156 646.214, 612.098 645.561 C 610.579 644.621, 608 646.098, 608 647.907 C 608 648.838, 610.126 652.502, 612.724 656.050 C 620.895 667.206, 634.915 691.173, 638.107 699.443 C 639.794 703.811, 641.777 710.551, 642.514 714.421 L 643.855 721.456 631.407 744.051 C 624.561 756.478, 618.407 768.137, 617.730 769.959 C 616.600 773.005, 614.538 774.243, 592.264 785.249 C 578.578 792.012, 567.369 796.972, 566.514 796.644 C 563.801 795.603, 564.912 793.242, 569.333 790.650 C 581.434 783.559, 593.085 765.333, 596.560 748.058 C 598.833 736.760, 598.126 719.414, 594.987 709.500 C 586.301 682.067, 565.541 664, 542.704 664 L 536.770 664 537.426 580.250 C 539.328 337.531, 540.071 261.048, 541.060 206 C 541.658 172.725, 542.002 136.950, 541.824 126.500 L 541.500 107.500 540.754 130" stroke="none" fill="#0b0b0b" fill-rule="evenodd"/><path d="M 0 540.001 L 0 1080.002 540.250 1079.751 L 1080.500 1079.500 1080.751 539.750 L 1081.002 -0 540.501 -0 L 0 0 0 540.001 M 0.496 540.500 C 0.496 837.500, 0.610 958.851, 0.750 810.168 C 0.890 661.485, 0.890 418.485, 0.750 270.168 C 0.610 121.851, 0.496 243.500, 0.496 540.500 M 540.754 130 C 540.344 142.375, 539.563 196.150, 539.019 249.500 C 538.474 302.850, 537.766 371.025, 537.445 401 C 537.124 430.975, 536.704 475.525, 536.511 500 C 536.318 524.475, 535.831 571.375, 535.428 604.223 L 534.696 663.946 529.141 665.561 C 519.773 668.285, 513.827 671.949, 505.892 679.888 C 494.343 691.442, 487.970 706.221, 486.369 725.159 C 485.108 740.081, 489.981 759.472, 498.180 772.157 C 502.642 779.061, 511.508 788.177, 516.039 790.520 C 519.467 792.293, 519.774 793.990, 517.102 796.408 C 515.294 798.044, 514.833 797.937, 507.352 794.139 C 503.033 791.947, 491.038 785.490, 480.695 779.791 L 461.891 769.428 454.378 750.464 C 450.245 740.034, 445.338 728.108, 443.472 723.961 L 440.079 716.423 441.495 710.353 C 444.719 696.530, 451.444 682.314, 465.008 660.649 C 469.954 652.750, 474 645.533, 474 644.612 C 474 641.267, 470.775 641.508, 467.770 645.076 C 463.609 650.018, 440.755 684.546, 436.648 692.096 C 429.840 704.613, 428.411 714.953, 431.924 726.291 C 432.982 729.706, 436.559 741.746, 439.874 753.046 C 443.189 764.346, 447.235 776.565, 448.865 780.199 C 451.595 786.284, 452.331 787.086, 458.165 790.332 C 463.830 793.485, 473.172 797.399, 497 806.603 L 504.500 809.500 500 809.828 C 497.525 810.009, 488.075 809.623, 479 808.971 C 469.925 808.319, 456.917 807.622, 450.093 807.422 C 435.583 806.996, 436.733 807.543, 418.737 792.506 C 405.527 781.469, 406.470 783.397, 403.094 760.500 C 399.963 739.257, 399.693 730.611, 401.913 722.603 C 404.046 714.906, 403.750 712.751, 400.623 713.197 C 398.935 713.438, 397.942 715.170, 395.775 721.648 C 391.720 733.772, 390.687 742.472, 391.280 759.500 C 392.079 782.416, 392.044 782.341, 410.857 801.085 C 428.615 818.777, 435.485 824.485, 440.797 825.960 C 442.833 826.526, 451.475 827.046, 460 827.116 C 468.525 827.187, 481.757 827.527, 489.405 827.872 L 503.309 828.500 481.905 837.721 C 470.132 842.792, 459.251 847.398, 457.724 847.956 C 456.198 848.514, 454.784 849.539, 454.582 850.235 C 452.930 855.927, 441.592 892.097, 440.781 894.262 C 440.062 896.184, 440.075 898.315, 440.825 901.262 C 441.418 903.593, 442.181 907.750, 442.520 910.500 C 443.356 917.271, 445.643 926.352, 448.187 933 C 450.899 940.090, 463.016 961.069, 464.793 961.751 C 465.542 962.038, 466.860 961.568, 467.722 960.706 C 469.145 959.283, 468.781 958.235, 463.762 949.319 C 457.414 938.045, 454.336 926.930, 453.333 911.665 L 452.718 902.295 457.987 889.898 C 464.785 873.904, 468.330 866.894, 470.641 864.877 C 472.833 862.963, 503.962 844.081, 510.016 840.992 C 515.119 838.388, 516.224 839.097, 512.776 842.760 C 509.769 845.954, 489.393 871.475, 487.295 874.675 C 486.135 876.444, 485.930 881.308, 486.198 900.675 L 486.529 924.500 490.514 934.919 C 496.175 949.718, 506.151 969.436, 508.165 969.807 C 511.646 970.449, 511.150 966.250, 506.561 956.240 C 504.069 950.802, 500.449 941.210, 498.517 934.926 C 495.298 924.449, 495.012 922.504, 495.083 911.500 C 495.125 904.900, 495.463 895.851, 495.835 891.392 C 496.449 884.017, 496.826 882.922, 500.005 879.274 C 501.927 877.069, 508.212 869.341, 513.972 862.101 C 524.300 849.120, 527.874 846.401, 527.208 852.031 C 526.530 857.774, 526.582 869.711, 527.297 872.315 C 527.892 874.478, 528.583 875.057, 530.285 874.815 C 532.258 874.534, 532.532 873.829, 532.795 868.366 L 533.089 862.233 537.255 863.169 C 539.546 863.683, 543.100 863.821, 545.153 863.474 L 548.884 862.844 549.192 867.672 C 549.473 872.073, 549.721 872.500, 552 872.500 L 554.500 872.500 554.500 860.624 C 554.500 849.379, 554.621 848.667, 556.775 847.235 C 558.933 845.801, 559.227 845.922, 562.543 849.612 C 564.465 851.750, 570.642 859.560, 576.269 866.967 L 586.500 880.433 586.827 904.467 L 587.154 928.500 583.962 938 C 580.760 947.530, 576.875 955.903, 573.059 961.500 C 571.934 963.150, 571.010 965.513, 571.007 966.750 C 570.996 970.391, 574.627 969.567, 577.612 965.250 C 592.772 943.329, 601.009 925.013, 601.336 912.500 C 601.393 910.300, 601.341 900.495, 601.220 890.710 L 601 872.921 586.806 857.710 C 562.985 832.185, 563.617 833.408, 580 844.534 C 585.775 848.456, 594.480 854.077, 599.343 857.025 C 609.193 862.995, 610.111 864.115, 624.310 887.500 L 632.203 900.500 631.655 910 C 630.803 924.774, 626.206 935.068, 614.807 947.728 C 610.588 952.413, 610.333 953.202, 612.466 954.972 C 614.620 956.760, 615.502 956.164, 622.081 948.483 C 632.929 935.820, 641 915.700, 641 901.323 C 641 891.157, 632.304 866.972, 624.300 854.877 C 622.232 851.752, 619 849.692, 605.156 842.676 C 595.995 838.033, 584.553 832.751, 579.730 830.937 C 574.906 829.124, 571.329 827.271, 571.780 826.820 C 572.232 826.368, 587.428 825.080, 605.551 823.958 C 623.673 822.835, 639.476 821.711, 640.670 821.459 C 643.385 820.887, 684.062 779.004, 685.712 775.081 C 687.379 771.119, 689.338 750.505, 688.572 745 C 688.227 742.525, 687.269 735.325, 686.443 729 C 684.535 714.403, 684.343 713.810, 681.664 714.192 C 679.602 714.485, 679.524 714.878, 680 722.500 C 680.977 738.127, 680.523 760.396, 679.097 766.828 C 677.706 773.098, 677.612 773.222, 668.597 780.554 C 663.594 784.623, 654.775 791.826, 649 796.559 C 643.225 801.293, 637.375 805.744, 636 806.450 C 633.225 807.877, 574.113 809.421, 575.652 808.027 C 576.119 807.605, 579.875 806.266, 584 805.051 C 594.201 802.048, 624.974 789.114, 627.722 786.676 C 628.944 785.591, 630.665 782.183, 631.546 779.102 C 635.512 765.231, 648.953 730.948, 651.613 727.921 C 653.742 725.498, 653.387 711.854, 650.953 702.563 C 648.084 691.608, 645.343 686.748, 636.532 677 C 632.307 672.325, 627.701 666.731, 626.298 664.568 C 622.524 658.755, 613.156 646.214, 612.098 645.561 C 610.579 644.621, 608 646.098, 608 647.907 C 608 648.838, 610.126 652.502, 612.724 656.050 C 620.895 667.206, 634.915 691.173, 638.107 699.443 C 639.794 703.811, 641.777 710.551, 642.514 714.421 L 643.855 721.456 631.407 744.051 C 624.561 756.478, 618.407 768.137, 617.730 769.959 C 616.600 773.005, 614.538 774.243, 592.264 785.249 C 578.578 792.012, 567.369 796.972, 566.514 796.644 C 563.801 795.603, 564.912 793.242, 569.333 790.650 C 581.434 783.559, 593.085 765.333, 596.560 748.058 C 598.833 736.760, 598.126 719.414, 594.987 709.500 C 586.301 682.067, 565.541 664, 542.704 664 L 536.770 664 537.426 580.250 C 539.328 337.531, 540.071 261.048, 541.060 206 C 541.658 172.725, 542.002 136.950, 541.824 126.500 L 541.500 107.500 540.754 130" stroke="none" fill="none" fill-rule="evenodd"/></svg>